<svg width="16" height="16" viewBox="0 0 16 16" fill="none" xmlns="http://www.w3.org/2000/svg">
<path d="M2 4H3.33333H14" stroke="#1A1A1A" stroke-linecap="round" stroke-linejoin="round"/>
<path d="M5.33398 3.99992V2.66659C5.33398 2.31296 5.47446 1.97382 5.72451 1.72378C5.97456 1.47373 6.31369 1.33325 6.66732 1.33325H9.33398C9.68761 1.33325 10.0268 1.47373 10.2768 1.72378C10.5269 1.97382 10.6673 2.31296 10.6673 2.66659V3.99992H5.33398ZM12.6673 3.99992V13.3333C12.6673 13.6869 12.5269 14.026 12.2768 14.2761C12.0268 14.5261 11.6876 14.6666 11.334 14.6666H4.66732C4.31369 14.6666 3.97456 14.5261 3.72451 14.2761C3.47446 14.026 3.33398 13.6869 3.33398 13.3333V3.99992H12.6673Z" stroke="#1A1A1A" stroke-linecap="round" stroke-linejoin="round"/>
</svg>
