<svg width="16" height="16" viewBox="0 0 16 16" fill="none" xmlns="http://www.w3.org/2000/svg">
<path d="M12 5.33325C12 4.27239 11.5786 3.25497 10.8284 2.50482C10.0783 1.75468 9.06087 1.33325 8 1.33325C6.93913 1.33325 5.92172 1.75468 5.17157 2.50482C4.42143 3.25497 4 4.27239 4 5.33325C4 9.99992 2 11.3333 2 11.3333H14C14 11.3333 12 9.99992 12 5.33325Z" stroke="#1A1A1A" stroke-linecap="round" stroke-linejoin="round"/>
<path d="M9.15432 14C9.03712 14.2021 8.86888 14.3698 8.66647 14.4864C8.46406 14.6029 8.23458 14.6643 8.00099 14.6643C7.7674 14.6643 7.53792 14.6029 7.33551 14.4864C7.13309 14.3698 6.96486 14.2021 6.84766 14" stroke="#1A1A1A" stroke-linecap="round" stroke-linejoin="round"/>
<path d="M14.1673 3.33341C14.1673 4.53003 13.1973 5.50008 12.0007 5.50008C10.804 5.50008 9.83398 4.53003 9.83398 3.33341C9.83398 2.1368 10.804 1.16675 12.0007 1.16675C13.1973 1.16675 14.1673 2.1368 14.1673 3.33341Z" fill="#1A1A1A" stroke="white"/>
</svg>
