<svg width="16" height="16" viewBox="0 0 16 16" fill="none" xmlns="http://www.w3.org/2000/svg">
<path d="M8.00065 8.66659C8.36884 8.66659 8.66732 8.36811 8.66732 7.99992C8.66732 7.63173 8.36884 7.33325 8.00065 7.33325C7.63246 7.33325 7.33398 7.63173 7.33398 7.99992C7.33398 8.36811 7.63246 8.66659 8.00065 8.66659Z" fill="#1A1A1A" stroke="#1A1A1A" stroke-linecap="round" stroke-linejoin="round"/>
<path d="M8.00065 4.00008C8.36884 4.00008 8.66732 3.7016 8.66732 3.33341C8.66732 2.96522 8.36884 2.66675 8.00065 2.66675C7.63246 2.66675 7.33398 2.96522 7.33398 3.33341C7.33398 3.7016 7.63246 4.00008 8.00065 4.00008Z" fill="#1A1A1A" stroke="#1A1A1A" stroke-linecap="round" stroke-linejoin="round"/>
<path d="M8.00065 13.3333C8.36884 13.3333 8.66732 13.0349 8.66732 12.6667C8.66732 12.2985 8.36884 12 8.00065 12C7.63246 12 7.33398 12.2985 7.33398 12.6667C7.33398 13.0349 7.63246 13.3333 8.00065 13.3333Z" fill="#1A1A1A" stroke="#1A1A1A" stroke-linecap="round" stroke-linejoin="round"/>
</svg>
