<svg width="16" height="16" viewBox="0 0 16 16" fill="none" xmlns="http://www.w3.org/2000/svg">
<path d="M8.00065 8.66659C8.36884 8.66659 8.66732 8.36811 8.66732 7.99992C8.66732 7.63173 8.36884 7.33325 8.00065 7.33325C7.63246 7.33325 7.33398 7.63173 7.33398 7.99992C7.33398 8.36811 7.63246 8.66659 8.00065 8.66659Z" fill="#1A1A1A" stroke="#1A1A1A" stroke-linecap="round" stroke-linejoin="round"/>
<path d="M12.6667 8.66659C13.0349 8.66659 13.3333 8.36811 13.3333 7.99992C13.3333 7.63173 13.0349 7.33325 12.6667 7.33325C12.2985 7.33325 12 7.63173 12 7.99992C12 8.36811 12.2985 8.66659 12.6667 8.66659Z" fill="#1A1A1A" stroke="#1A1A1A" stroke-linecap="round" stroke-linejoin="round"/>
<path d="M3.33268 8.66659C3.70087 8.66659 3.99935 8.36811 3.99935 7.99992C3.99935 7.63173 3.70087 7.33325 3.33268 7.33325C2.96449 7.33325 2.66602 7.63173 2.66602 7.99992C2.66602 8.36811 2.96449 8.66659 3.33268 8.66659Z" fill="#1A1A1A" stroke="#1A1A1A" stroke-linecap="round" stroke-linejoin="round"/>
</svg>
