<svg width="16" height="16" viewBox="0 0 16 16" fill="none" xmlns="http://www.w3.org/2000/svg">
<path d="M10.666 2.66675H11.9993C12.353 2.66675 12.6921 2.80722 12.9422 3.05727C13.1922 3.30732 13.3327 3.64646 13.3327 4.00008V13.3334C13.3327 13.687 13.1922 14.0262 12.9422 14.2762C12.6921 14.5263 12.353 14.6667 11.9993 14.6667H3.99935C3.64573 14.6667 3.30659 14.5263 3.05654 14.2762C2.80649 14.0262 2.66602 13.687 2.66602 13.3334V4.00008C2.66602 3.64646 2.80649 3.30732 3.05654 3.05727C3.30659 2.80722 3.64573 2.66675 3.99935 2.66675H5.33268" stroke="#1A1A1A" stroke-linecap="round" stroke-linejoin="round"/>
<path d="M10.0007 1.33325H6.00065C5.63246 1.33325 5.33398 1.63173 5.33398 1.99992V3.33325C5.33398 3.70144 5.63246 3.99992 6.00065 3.99992H10.0007C10.3688 3.99992 10.6673 3.70144 10.6673 3.33325V1.99992C10.6673 1.63173 10.3688 1.33325 10.0007 1.33325Z" stroke="#1A1A1A" stroke-linecap="round" stroke-linejoin="round"/>
</svg>
