<svg width="16" height="16" viewBox="0 0 16 16" fill="none" xmlns="http://www.w3.org/2000/svg">
<path d="M4 5.99992V1.33325H12V5.99992" stroke="#1A1A1A" stroke-linecap="round" stroke-linejoin="round"/>
<path d="M4.00065 12H2.66732C2.3137 12 1.97456 11.8595 1.72451 11.6095C1.47446 11.3594 1.33398 11.0203 1.33398 10.6667V7.33333C1.33398 6.97971 1.47446 6.64057 1.72451 6.39052C1.97456 6.14048 2.3137 6 2.66732 6H13.334C13.6876 6 14.0267 6.14048 14.2768 6.39052C14.5268 6.64057 14.6673 6.97971 14.6673 7.33333V10.6667C14.6673 11.0203 14.5268 11.3594 14.2768 11.6095C14.0267 11.8595 13.6876 12 13.334 12H12.0007" stroke="#1A1A1A" stroke-linecap="round" stroke-linejoin="round"/>
<path d="M12 9.33325H4V14.6666H12V9.33325Z" stroke="#1A1A1A" stroke-linecap="round" stroke-linejoin="round"/>
</svg>
