<svg width="16" height="16" viewBox="0 0 16 16" fill="none" xmlns="http://www.w3.org/2000/svg">
<path d="M9.15432 14C9.03712 14.2021 8.86888 14.3698 8.66647 14.4864C8.46406 14.6029 8.23458 14.6643 8.00099 14.6643C7.7674 14.6643 7.53792 14.6029 7.33551 14.4864C7.13309 14.3698 6.96486 14.2021 6.84766 14" stroke="#1A1A1A" stroke-linecap="round" stroke-linejoin="round"/>
<path d="M12.4196 8.66659C12.123 7.58086 11.9816 6.45861 11.9996 5.33325" stroke="#1A1A1A" stroke-linecap="round" stroke-linejoin="round"/>
<path d="M4.17333 4.17334C4.05751 4.54908 3.99907 4.94015 4 5.33334C4 10 2 11.3333 2 11.3333H11.3333" stroke="#1A1A1A" stroke-linecap="round" stroke-linejoin="round"/>
<path d="M11.9993 5.33333C12.0004 4.6087 11.8046 3.8974 11.4329 3.27539C11.0611 2.65338 10.5274 2.14403 9.88871 1.80175C9.25002 1.45948 8.53035 1.29712 7.80656 1.33204C7.08278 1.36696 6.38208 1.59783 5.7793 2" stroke="#1A1A1A" stroke-linecap="round" stroke-linejoin="round"/>
<path d="M0.666016 0.666748L15.3327 15.3334" stroke="#1A1A1A" stroke-linecap="round" stroke-linejoin="round"/>
</svg>
