<svg width="16" height="16" viewBox="0 0 16 16" fill="none" xmlns="http://www.w3.org/2000/svg">
<path d="M9.99935 4.66675H11.9993C12.4371 4.66675 12.8705 4.75297 13.275 4.92048C13.6794 5.088 14.0468 5.33353 14.3564 5.64306C14.6659 5.95259 14.9114 6.32005 15.0789 6.72447C15.2465 7.12889 15.3327 7.56234 15.3327 8.00008C15.3327 8.43782 15.2465 8.87127 15.0789 9.27569C14.9114 9.68011 14.6659 10.0476 14.3564 10.3571C14.0468 10.6666 13.6794 10.9122 13.275 11.0797C12.8705 11.2472 12.4371 11.3334 11.9993 11.3334H9.99935M5.99935 11.3334H3.99935C3.56161 11.3334 3.12816 11.2472 2.72374 11.0797C2.31932 10.9122 1.95185 10.6666 1.64233 10.3571C1.01721 9.73198 0.666016 8.88414 0.666016 8.00008C0.666016 7.11603 1.01721 6.26818 1.64233 5.64306C2.26745 5.01794 3.11529 4.66675 3.99935 4.66675H5.99935" stroke="black" stroke-linecap="round" stroke-linejoin="round"/>
</svg>
