<svg width="24" height="24" viewBox="0 0 24 24" fill="none" xmlns="http://www.w3.org/2000/svg">
<path d="M13.73 21C13.5542 21.3031 13.3019 21.5547 12.9982 21.7295C12.6946 21.9044 12.3504 21.9965 12 21.9965C11.6496 21.9965 11.3054 21.9044 11.0018 21.7295C10.6982 21.5547 10.4458 21.3031 10.27 21" stroke="#1A1A1A" stroke-width="2" stroke-linecap="round" stroke-linejoin="round"/>
<path d="M18.63 13C18.1851 11.3714 17.973 9.68804 18 8" stroke="#1A1A1A" stroke-width="2" stroke-linecap="round" stroke-linejoin="round"/>
<path d="M6.26 6.26C6.08627 6.82361 5.99861 7.41022 6 8C6 15 3 17 3 17H17" stroke="#1A1A1A" stroke-width="2" stroke-linecap="round" stroke-linejoin="round"/>
<path d="M18 8C18.0017 6.91306 17.708 5.84611 17.1504 4.91309C16.5928 3.98008 15.7922 3.21606 14.8342 2.70264C13.8761 2.18922 12.7966 1.94569 11.7109 1.99807C10.6253 2.05044 9.57421 2.39675 8.67004 3" stroke="#1A1A1A" stroke-width="2" stroke-linecap="round" stroke-linejoin="round"/>
<path d="M1 1L23 23" stroke="#1A1A1A" stroke-width="2" stroke-linecap="round" stroke-linejoin="round"/>
</svg>
